<?xml version="1.0" encoding="UTF-8" standalone="no"?>
<svg width="220px" height="220px" viewBox="0 0 220 220" version="1.1" xmlns="http://www.w3.org/2000/svg" xmlns:xlink="http://www.w3.org/1999/xlink">
    <!-- Generator: Sketch 39.1 (31720) - http://www.bohemiancoding.com/sketch -->
    <title>iconfont-234icoyijieshu</title>
    <desc>Created with Sketch.</desc>
    <defs></defs>
    <g id="Page-1" stroke="none" stroke-width="1" fill="none" fill-rule="evenodd" opacity="0.600000024">
        <g id="活动已结束" transform="translate(-265.000000, -733.000000)">
            <g id="iconfont-234icoyijieshu" transform="translate(265.000000, 733.000000)">
                <polyline id="Fill-1" fill="#969696" points="71.9096234 52.6772664 75.9598326 49.3880056 81.2864714 49.7807531 79.2490934 45.0923291 81.2864714 40.4039052 75.9598326 40.7966527 71.9096234 37.5073919 70.6577406 42.4412831 66.1165969 45.0923291 70.6577406 47.7433752 71.9096234 52.6772664"></polyline>
                <polyline id="Fill-2" fill="#969696" points="145.819805 47.0806137 149.575453 50.8608089 151.09735 45.9760112 155.712134 43.7668061 151.441004 40.5757322 150.532775 35.4209205 146.359833 38.3174338 141.180474 37.3355649 142.874198 42.3185495 140.591353 46.8596932 145.819805 47.0806137"></polyline>
                <polyline id="Fill-3" fill="#969696" points="104.409484 41.1648536 109.441562 39.7411437 114.179079 42.1958159 114.154533 37.0900976 117.885635 33.5799163 112.853556 31.837099 110.423431 27.2223152 107.330544 31.2479777 102.102092 31.8861925 105.219526 36.1082287 104.409484 41.1648536"></polyline>
                <polyline id="Fill-4" fill="#969696" points="49.6702929 71.6764296 53.2541144 75.2847978 55.0951185 70.4 59.8817294 68.0435146 55.7578801 65.0488145 55.1196653 59.967643 50.7503487 63.0114365 45.595537 62.2259414 47.0192469 67.1107392 44.441841 71.7009763 49.6702929 71.6764296"></polyline>
                <polyline id="Fill-5" fill="#969696" points="149.207252 171.360669 145.18159 174.64993 139.904045 174.257183 141.916876 178.92106 139.904045 183.609484 145.18159 183.216736 149.207252 186.505997 150.459135 181.596653 154.975732 178.945607 150.459135 176.294561 149.207252 171.360669"></polyline>
                <polyline id="Fill-6" fill="#969696" points="117.026499 180.320223 112.043515 181.743933 107.355091 179.289261 107.379637 184.394979 103.697629 187.880614 108.70516 189.623431 111.110739 194.238215 114.179079 190.212552 119.358438 189.574338 116.265551 185.352301 117.026499 180.320223"></polyline>
                <polyline id="Fill-7" fill="#969696" points="78.1690377 174.57629 74.4379358 170.796095 72.9160391 175.656346 68.3503487 177.865551 72.5969317 181.032078 73.4806137 186.162343 77.6290098 183.26583 82.7592748 184.223152 81.0900976 179.264714 83.3729428 174.72357 78.1690377 174.57629"></polyline>
                <path d="M110.030683,0.0490934449 C49.4248257,0.0490934449 0.110460251,49.3634589 0.110460251,109.969317 C0.110460251,170.575174 49.4248257,219.88954 110.030683,219.88954 C170.636541,219.88954 219.950907,170.575174 219.950907,109.969317 C219.950907,49.3634589 170.636541,0.0490934449 110.030683,0.0490934449 L110.030683,0.0490934449 Z M110.030683,212.599163 C53.4504881,212.599163 7.40083682,166.574059 7.40083682,109.969317 C7.40083682,53.3891213 53.4259414,7.33947001 110.030683,7.33947001 C166.635425,7.33947001 212.66053,53.3891213 212.66053,109.969317 C212.66053,166.549512 166.610879,212.599163 110.030683,212.599163 L110.030683,212.599163 Z" id="Fill-8" fill="#969696"></path>
                <path d="M110.030683,17.7963738 C59.1944212,17.7963738 17.8577406,59.1576011 17.8577406,109.969317 C17.8577406,160.805579 59.2189679,202.142259 110.030683,202.142259 C160.866946,202.142259 202.203626,160.781032 202.203626,109.969317 C202.203626,59.1330544 160.866946,17.7963738 110.030683,17.7963738 L110.030683,17.7963738 Z M178.491492,149.71046 L174.711297,146.372106 L173.238494,151.379637 L168.672803,154.05523 L172.96848,156.75537 L173.950349,161.762901 L178.074198,158.424547 L183.179916,158.841841 C167.371827,182.431241 140.493166,197.969317 110.030683,197.969317 C61.5018131,197.969317 22.0306834,158.498187 22.0306834,109.969317 C22.0306834,61.4404463 61.5018131,21.9693166 110.030683,21.9693166 C158.559554,21.9693166 198.030683,61.4404463 198.030683,109.969317 C198.030683,128.011158 192.556764,144.801116 183.204463,158.792748 L181.486192,154.079777 L183.695397,149.342259 L178.491492,149.71046 L178.491492,149.71046 Z" id="Fill-9" fill="#969696"></path>
                <path d="M146.261646,65.7606695 C136.074756,57.4147838 123.212273,52.8 110.030683,52.8 C82.6365411,52.8 59.0225941,72.3146444 53.8923291,99.1933054 L57.4761506,99.8806137 C62.2627615,74.7202232 84.3793584,56.4574616 110.030683,56.4574616 C122.377685,56.4574616 134.430126,60.7531381 143.954254,68.5835425 L146.261646,65.7606695" id="Fill-10" fill="#969696"></path>
                <path d="M110.030683,163.481172 C97.683682,163.481172 85.6312413,159.185495 76.107113,151.355091 L73.7997211,154.177964 C83.9866109,162.523849 96.8490934,167.138633 110.030683,167.138633 C137.449372,167.138633 161.063319,147.623989 166.169038,120.745328 L162.585216,120.05802 C157.798605,145.21841 135.682008,163.481172 110.030683,163.481172" id="Fill-11" fill="#969696"></path>
                <text id="活动已结束" transform="translate(111.000000, 109.000000) rotate(-20.000000) translate(-111.000000, -109.000000) " font-family=".PingFangSC-Regular, .PingFang SC" font-size="32" font-weight="normal" fill="#4F4F4F">
                    <tspan x="31" y="121">活动已结束</tspan>
                </text>
            </g>
        </g>
    </g>
</svg>